<?xml version="1.0" encoding="UTF-8" standalone="no"?>
<!-- Created with Inkscape (http://www.inkscape.org/) -->

<svg
   width="325.12mm"
   height="121.92mm"
   viewBox="0 0 325.12 121.92"
   version="1.1"
   id="svg5"
   inkscape:version="1.1.1 (3bf5ae0d25, 2021-09-20)"
   sodipodi:docname="Trees.svg"
   xmlns:inkscape="http://www.inkscape.org/namespaces/inkscape"
   xmlns:sodipodi="http://sodipodi.sourceforge.net/DTD/sodipodi-0.dtd"
   xmlns:xlink="http://www.w3.org/1999/xlink"
   xmlns="http://www.w3.org/2000/svg"
   xmlns:svg="http://www.w3.org/2000/svg">
  <sodipodi:namedview
     id="namedview7"
     pagecolor="#ffffff"
     bordercolor="#666666"
     borderopacity="1.0"
     inkscape:pageshadow="2"
     inkscape:pageopacity="0.0"
     inkscape:pagecheckerboard="0"
     inkscape:document-units="mm"
     showgrid="false"
     width="211mm"
     fit-margin-top="0"
     fit-margin-left="0"
     fit-margin-right="0"
     fit-margin-bottom="0"
     inkscape:zoom="0.76791526"
     inkscape:cx="602.27999"
     inkscape:cy="186.86958"
     inkscape:window-width="1920"
     inkscape:window-height="1051"
     inkscape:window-x="-9"
     inkscape:window-y="-9"
     inkscape:window-maximized="1"
     inkscape:current-layer="layer1" />
  <defs
     id="defs2">
    <style
       type="text/css"
       id="style192">*{stroke-linecap:butt;stroke-linejoin:round;}</style>
    <path
       d="m 0,8.660254 c 2.296726,0 4.499694,-0.912499 6.123724,-2.53653 C 7.747755,4.499694 8.660254,2.296726 8.660254,0 c 0,-2.296726 -0.912499,-4.499694 -2.53653,-6.123724 C 4.499694,-7.747755 2.296726,-8.660254 0,-8.660254 c -2.296726,0 -4.499694,0.912499 -6.123724,2.53653 -1.624031,1.62403 -2.53653,3.826998 -2.53653,6.123724 0,2.296726 0.912499,4.499694 2.53653,6.123724 1.62403,1.624031 3.826998,2.53653 6.123724,2.53653 z"
       id="m2fabc66dd4"
       style="stroke:#1f78b4" />
    <path
       d="m 2194,1759 q -697,0 -966,-159 -269,-159 -269,-544 0,-306 202,-486 202,-179 548,-179 479,0 768,339 289,339 289,901 v 128 z m 1147,238 V 0 H 2766 V 531 Q 2569,213 2275,61 1981,-91 1556,-91 q -537,0 -855,302 -317,302 -317,808 0,590 395,890 396,300 1180,300 h 807 v 57 q 0,397 -261,614 -261,217 -733,217 -300,0 -585,-72 -284,-72 -546,-216 v 532 q 315,122 612,182 297,61 578,61 760,0 1135,-394 375,-393 375,-1193 z"
       id="DejaVuSans-61"
       transform="scale(0.015625)" />
    <path
       d="m 2906,2969 v 1894 h 575 V 0 H 2906 V 525 Q 2725,213 2448,61 2172,-91 1784,-91 1150,-91 751,415 353,922 353,1747 q 0,825 398,1331 399,506 1033,506 388,0 664,-152 277,-151 458,-463 z M 947,1747 q 0,-634 261,-995 261,-361 717,-361 456,0 718,361 263,361 263,995 0,634 -263,995 -262,361 -718,361 -456,0 -717,-361 -261,-361 -261,-995 z"
       id="DejaVuSans-64"
       transform="scale(0.015625)" />
    <path
       d="m 2113,2584 q -425,0 -674,-291 -248,-290 -248,-796 0,-503 248,-796 249,-292 674,-292 425,0 673,292 248,293 248,796 0,506 -248,796 -248,291 -673,291 z m 1253,1979 v -575 q -238,112 -480,171 -242,60 -480,60 -625,0 -955,-422 -329,-422 -376,-1275 184,272 462,417 279,145 613,145 703,0 1111,-427 408,-426 408,-1160 0,-719 -425,-1154 -425,-434 -1131,-434 -810,0 -1238,620 -428,621 -428,1799 0,1106 525,1764 525,658 1409,658 238,0 480,-47 242,-47 505,-140 z"
       id="DejaVuSans-36"
       transform="scale(0.015625)" />
    <path
       d="m 684,794 h 660 V 0 H 684 Z"
       id="DejaVuSans-2e"
       transform="scale(0.015625)" />
    <path
       d="m 703,97 v 575 q 238,-113 481,-172 244,-59 479,-59 625,0 954,420 330,420 377,1277 -181,-269 -460,-413 -278,-144 -615,-144 -700,0 -1108,423 -408,424 -408,1159 0,718 425,1152 425,435 1131,435 810,0 1236,-621 427,-620 427,-1801 Q 3622,1225 3098,567 2575,-91 1691,-91 1453,-91 1209,-44 966,3 703,97 Z m 1256,1978 q 425,0 673,290 249,291 249,798 0,503 -249,795 -248,292 -673,292 -425,0 -673,-292 -248,-292 -248,-795 0,-507 248,-798 248,-290 673,-290 z"
       id="DejaVuSans-39"
       transform="scale(0.015625)" />
    <path
       d="M 2188,4044 1331,1722 h 1716 z m -357,622 h 716 L 4325,0 H 3669 L 3244,1197 H 1141 L 716,0 H 50 Z"
       id="DejaVuSans-41"
       transform="scale(0.015625)" />
    <path
       d="m 2841,2188 q 203,-69 395,-294 192,-225 386,-619 L 4263,0 h -679 l -596,1197 q -232,469 -449,622 -217,153 -592,153 H 1259 V 0 H 628 v 4666 h 1425 q 800,0 1194,-335 394,-334 394,-1009 0,-441 -205,-732 -205,-290 -595,-402 z M 1259,4147 V 2491 h 794 q 456,0 689,211 233,211 233,620 0,409 -233,617 -233,208 -689,208 z"
       id="DejaVuSans-52"
       transform="scale(0.015625)" />
    <path
       d="M 3809,666 V 1919 H 2778 v 519 H 4434 V 434 Q 4069,175 3628,42 3188,-91 2688,-91 1594,-91 976,548 359,1188 359,2328 q 0,1144 617,1783 618,639 1712,639 456,0 867,-113 411,-112 758,-331 v -672 q -350,297 -744,447 -394,150 -828,150 -857,0 -1287,-478 -429,-478 -429,-1425 0,-944 429,-1422 430,-478 1287,-478 334,0 596,58 263,58 472,180 z"
       id="DejaVuSans-47"
       transform="scale(0.015625)" />
    <path
       d="m 2034,4250 q -487,0 -733,-480 -245,-479 -245,-1442 0,-959 245,-1439 246,-480 733,-480 491,0 736,480 246,480 246,1439 0,963 -246,1442 -245,480 -736,480 z m 0,500 q 785,0 1199,-621 414,-620 414,-1801 0,-1178 -414,-1799 -414,-620 -1199,-620 -784,0 -1198,620 -414,621 -414,1799 0,1181 414,1801 414,621 1198,621 z"
       id="DejaVuSans-30"
       transform="scale(0.015625)" />
    <path
       d="m 3425,4513 v -616 q -359,172 -678,256 -319,85 -616,85 -515,0 -795,-200 -280,-200 -280,-569 0,-310 186,-468 186,-157 705,-254 l 381,-78 q 706,-135 1042,-474 336,-339 336,-907 0,-679 -455,-1029 -454,-350 -1332,-350 -331,0 -705,75 -373,75 -773,222 v 650 q 384,-215 753,-325 369,-109 725,-109 540,0 834,212 294,213 294,607 0,343 -211,537 -211,194 -692,291 l -385,75 q -706,140 -1022,440 -315,300 -315,835 0,619 436,975 436,356 1201,356 329,0 669,-60 341,-59 697,-177 z"
       id="DejaVuSans-53"
       transform="scale(0.015625)" />
    <path
       d="m 603,3500 h 575 V 0 H 603 Z m 0,1363 h 575 V 4134 H 603 Z"
       id="DejaVuSans-69"
       transform="scale(0.015625)" />
    <path
       d="m 3328,2828 q 216,388 516,572 300,184 706,184 547,0 844,-383 297,-382 297,-1088 V 0 h -578 v 2094 q 0,503 -179,746 -178,244 -543,244 -447,0 -707,-297 -259,-296 -259,-809 V 0 h -578 v 2094 q 0,506 -178,748 -178,242 -550,242 -441,0 -701,-298 -259,-298 -259,-808 V 0 H 581 v 3500 h 578 v -544 q 197,322 472,475 275,153 653,153 382,0 649,-194 267,-193 395,-562 z"
       id="DejaVuSans-6d"
       transform="scale(0.015625)" />
    <path
       d="M 1159,525 V -1331 H 581 v 4831 h 578 v -531 q 182,312 458,463 277,152 661,152 638,0 1036,-506 399,-506 399,-1331 0,-825 -399,-1332 -398,-506 -1036,-506 -384,0 -661,152 -276,152 -458,464 z m 1957,1222 q 0,634 -261,995 -261,361 -717,361 -457,0 -718,-361 -261,-361 -261,-995 0,-634 261,-995 261,-361 718,-361 456,0 717,361 261,361 261,995 z"
       id="DejaVuSans-70"
       transform="scale(0.015625)" />
    <path
       d="m 603,4863 h 575 V 0 H 603 Z"
       id="DejaVuSans-6c"
       transform="scale(0.015625)" />
    <path
       d="M 3597,1894 V 1613 H 953 q 38,-594 358,-905 320,-311 892,-311 331,0 642,81 311,81 618,244 V 178 Q 3153,47 2828,-22 2503,-91 2169,-91 1331,-91 842,396 353,884 353,1716 q 0,859 464,1363 464,505 1252,505 706,0 1117,-455 411,-454 411,-1235 z m -575,169 q -6,471 -264,752 -258,282 -683,282 -481,0 -770,-272 -289,-272 -333,-766 z"
       id="DejaVuSans-65"
       transform="scale(0.015625)" />
    <path
       id="DejaVuSans-20"
       transform="scale(0.015625)"
       d="" />
    <path
       d="M 628,4666 H 3309 V 4134 H 1259 V 2759 H 3109 V 2228 H 1259 V 0 H 628 Z"
       id="DejaVuSans-46"
       transform="scale(0.015625)" />
    <path
       d="m 544,1381 v 2119 h 575 V 1403 q 0,-497 193,-746 194,-248 582,-248 465,0 735,297 271,297 271,810 v 1984 h 575 V 0 H 2900 V 538 Q 2691,219 2414,64 2138,-91 1772,-91 1169,-91 856,284 544,659 544,1381 Z m 1447,2203 z"
       id="DejaVuSans-75"
       transform="scale(0.015625)" />
    <path
       d="M 3513,2113 V 0 h -575 v 2094 q 0,497 -194,743 -194,247 -581,247 -466,0 -735,-297 -269,-296 -269,-809 V 0 H 581 v 3500 h 578 v -544 q 207,316 486,472 280,156 646,156 603,0 912,-373 310,-373 310,-1098 z"
       id="DejaVuSans-6e"
       transform="scale(0.015625)" />
    <path
       d="m 3122,3366 v -538 q -244,135 -489,202 -245,67 -495,67 -560,0 -870,-355 -309,-354 -309,-995 0,-641 309,-996 310,-354 870,-354 250,0 495,67 245,67 489,202 V 134 Q 2881,22 2623,-34 2366,-91 2075,-91 1284,-91 818,406 353,903 353,1747 q 0,856 470,1346 471,491 1290,491 265,0 518,-55 253,-54 491,-163 z"
       id="DejaVuSans-63"
       transform="scale(0.015625)" />
    <path
       d="M 1172,4494 V 3500 H 2356 V 3053 H 1172 V 1153 q 0,-428 117,-550 117,-122 477,-122 h 590 V 0 H 1766 Q 1100,0 847,248 594,497 594,1153 V 3053 H 172 v 447 h 422 v 994 z"
       id="DejaVuSans-74"
       transform="scale(0.015625)" />
    <path
       d="m 1959,3097 q -462,0 -731,-361 -269,-361 -269,-989 0,-628 267,-989 268,-361 733,-361 460,0 728,362 269,363 269,988 0,622 -269,986 -268,364 -728,364 z m 0,487 q 750,0 1178,-488 429,-487 429,-1349 Q 3566,888 3137,398 2709,-91 1959,-91 1206,-91 779,398 353,888 353,1747 q 0,862 426,1349 427,488 1180,488 z"
       id="DejaVuSans-6f"
       transform="scale(0.015625)" />
    <path
       d="M -19,4666 H 3928 V 4134 H 2272 V 0 H 1638 V 4134 H -19 Z"
       id="DejaVuSans-54"
       transform="scale(0.015625)" />
    <path
       d="m 2631,2963 q -97,56 -211,82 -114,27 -251,27 -488,0 -749,-317 -261,-317 -261,-911 V 0 H 581 v 3500 h 578 v -544 q 182,319 472,473 291,155 707,155 59,0 131,-8 72,-7 159,-23 z"
       id="DejaVuSans-72"
       transform="scale(0.015625)" />
    <clipPath
       id="p3958703547">
      <rect
         height="266.112"
         width="357.12"
         x="57.599998"
         y="41.472"
         id="rect362" />
    </clipPath>
    <style
       type="text/css"
       id="style832">*{stroke-linecap:butt;stroke-linejoin:round;}</style>
    <path
       d="m 0,8.660254 c 2.296726,0 4.499694,-0.912499 6.123724,-2.53653 C 7.747755,4.499694 8.660254,2.296726 8.660254,0 c 0,-2.296726 -0.912499,-4.499694 -2.53653,-6.123724 C 4.499694,-7.747755 2.296726,-8.660254 0,-8.660254 c -2.296726,0 -4.499694,0.912499 -6.123724,2.53653 -1.624031,1.62403 -2.53653,3.826998 -2.53653,6.123724 0,2.296726 0.912499,4.499694 2.53653,6.123724 1.62403,1.624031 3.826998,2.53653 6.123724,2.53653 z"
       id="m0aa57874cb"
       style="stroke:#1f78b4" />
    <path
       d="m 2194,1759 q -697,0 -966,-159 -269,-159 -269,-544 0,-306 202,-486 202,-179 548,-179 479,0 768,339 289,339 289,901 v 128 z m 1147,238 V 0 H 2766 V 531 Q 2569,213 2275,61 1981,-91 1556,-91 q -537,0 -855,302 -317,302 -317,808 0,590 395,890 396,300 1180,300 h 807 v 57 q 0,397 -261,614 -261,217 -733,217 -300,0 -585,-72 -284,-72 -546,-216 v 532 q 315,122 612,182 297,61 578,61 760,0 1135,-394 375,-393 375,-1193 z"
       id="DejaVuSans-61-4"
       transform="scale(0.015625)" />
    <path
       d="m 2906,2969 v 1894 h 575 V 0 H 2906 V 525 Q 2725,213 2448,61 2172,-91 1784,-91 1150,-91 751,415 353,922 353,1747 q 0,825 398,1331 399,506 1033,506 388,0 664,-152 277,-151 458,-463 z M 947,1747 q 0,-634 261,-995 261,-361 717,-361 456,0 718,361 263,361 263,995 0,634 -263,995 -262,361 -718,361 -456,0 -717,-361 -261,-361 -261,-995 z"
       id="DejaVuSans-64-8"
       transform="scale(0.015625)" />
    <path
       d="m 3328,2828 q 216,388 516,572 300,184 706,184 547,0 844,-383 297,-382 297,-1088 V 0 h -578 v 2094 q 0,503 -179,746 -178,244 -543,244 -447,0 -707,-297 -259,-296 -259,-809 V 0 h -578 v 2094 q 0,506 -178,748 -178,242 -550,242 -441,0 -701,-298 -259,-298 -259,-808 V 0 H 581 v 3500 h 578 v -544 q 197,322 472,475 275,153 653,153 382,0 649,-194 267,-193 395,-562 z"
       id="DejaVuSans-6d-2"
       transform="scale(0.015625)" />
    <path
       d="m 544,1381 v 2119 h 575 V 1403 q 0,-497 193,-746 194,-248 582,-248 465,0 735,297 271,297 271,810 v 1984 h 575 V 0 H 2900 V 538 Q 2691,219 2414,64 2138,-91 1772,-91 1169,-91 856,284 544,659 544,1381 Z m 1447,2203 z"
       id="DejaVuSans-75-0"
       transform="scale(0.015625)" />
    <path
       d="m 603,4863 h 575 V 0 H 603 Z"
       id="DejaVuSans-6c-0"
       transform="scale(0.015625)" />
    <path
       d="M 2188,4044 1331,1722 h 1716 z m -357,622 h 716 L 4325,0 H 3669 L 3244,1197 H 1141 L 716,0 H 50 Z"
       id="DejaVuSans-41-3"
       transform="scale(0.015625)" />
    <path
       d="m 2841,2188 q 203,-69 395,-294 192,-225 386,-619 L 4263,0 h -679 l -596,1197 q -232,469 -449,622 -217,153 -592,153 H 1259 V 0 H 628 v 4666 h 1425 q 800,0 1194,-335 394,-334 394,-1009 0,-441 -205,-732 -205,-290 -595,-402 z M 1259,4147 V 2491 h 794 q 456,0 689,211 233,211 233,620 0,409 -233,617 -233,208 -689,208 z"
       id="DejaVuSans-52-3"
       transform="scale(0.015625)" />
    <path
       d="M 3809,666 V 1919 H 2778 v 519 H 4434 V 434 Q 4069,175 3628,42 3188,-91 2688,-91 1594,-91 976,548 359,1188 359,2328 q 0,1144 617,1783 618,639 1712,639 456,0 867,-113 411,-112 758,-331 v -672 q -350,297 -744,447 -394,150 -828,150 -857,0 -1287,-478 -429,-478 -429,-1425 0,-944 429,-1422 430,-478 1287,-478 334,0 596,58 263,58 472,180 z"
       id="DejaVuSans-47-4"
       transform="scale(0.015625)" />
    <path
       d="m 2034,4250 q -487,0 -733,-480 -245,-479 -245,-1442 0,-959 245,-1439 246,-480 733,-480 491,0 736,480 246,480 246,1439 0,963 -246,1442 -245,480 -736,480 z m 0,500 q 785,0 1199,-621 414,-620 414,-1801 0,-1178 -414,-1799 -414,-620 -1199,-620 -784,0 -1198,620 -414,621 -414,1799 0,1181 414,1801 414,621 1198,621 z"
       id="DejaVuSans-30-7"
       transform="scale(0.015625)" />
    <path
       d="M 1159,525 V -1331 H 581 v 4831 h 578 v -531 q 182,312 458,463 277,152 661,152 638,0 1036,-506 399,-506 399,-1331 0,-825 -399,-1332 -398,-506 -1036,-506 -384,0 -661,152 -276,152 -458,464 z m 1957,1222 q 0,634 -261,995 -261,361 -717,361 -457,0 -718,-361 -261,-361 -261,-995 0,-634 261,-995 261,-361 718,-361 456,0 717,361 261,361 261,995 z"
       id="DejaVuSans-70-9"
       transform="scale(0.015625)" />
    <path
       d="m 2631,2963 q -97,56 -211,82 -114,27 -251,27 -488,0 -749,-317 -261,-317 -261,-911 V 0 H 581 v 3500 h 578 v -544 q 182,319 472,473 291,155 707,155 59,0 131,-8 72,-7 159,-23 z"
       id="DejaVuSans-72-3"
       transform="scale(0.015625)" />
    <path
       d="m 1959,3097 q -462,0 -731,-361 -269,-361 -269,-989 0,-628 267,-989 268,-361 733,-361 460,0 728,362 269,363 269,988 0,622 -269,986 -268,364 -728,364 z m 0,487 q 750,0 1178,-488 429,-487 429,-1349 Q 3566,888 3137,398 2709,-91 1959,-91 1206,-91 779,398 353,888 353,1747 q 0,862 426,1349 427,488 1180,488 z"
       id="DejaVuSans-6f-7"
       transform="scale(0.015625)" />
    <path
       d="M 1172,4494 V 3500 H 2356 V 3053 H 1172 V 1153 q 0,-428 117,-550 117,-122 477,-122 h 590 V 0 H 1766 Q 1100,0 847,248 594,497 594,1153 V 3053 H 172 v 447 h 422 v 994 z"
       id="DejaVuSans-74-9"
       transform="scale(0.015625)" />
    <path
       d="M 3597,1894 V 1613 H 953 q 38,-594 358,-905 320,-311 892,-311 331,0 642,81 311,81 618,244 V 178 Q 3153,47 2828,-22 2503,-91 2169,-91 1331,-91 842,396 353,884 353,1716 q 0,859 464,1363 464,505 1252,505 706,0 1117,-455 411,-454 411,-1235 z m -575,169 q -6,471 -264,752 -258,282 -683,282 -481,0 -770,-272 -289,-272 -333,-766 z"
       id="DejaVuSans-65-2"
       transform="scale(0.015625)" />
    <path
       d="m 3122,3366 v -538 q -244,135 -489,202 -245,67 -495,67 -560,0 -870,-355 -309,-354 -309,-995 0,-641 309,-996 310,-354 870,-354 250,0 495,67 245,67 489,202 V 134 Q 2881,22 2623,-34 2366,-91 2075,-91 1284,-91 818,406 353,903 353,1747 q 0,856 470,1346 471,491 1290,491 265,0 518,-55 253,-54 491,-163 z"
       id="DejaVuSans-63-4"
       transform="scale(0.015625)" />
    <path
       d="M 1259,4147 V 519 h 763 q 966,0 1414,437 448,438 448,1382 0,937 -448,1373 -448,436 -1414,436 z m -631,519 h 1297 q 1356,0 1990,-564 635,-564 635,-1764 Q 4550,1131 3912,565 3275,0 1925,0 H 628 Z"
       id="DejaVuSans-44"
       transform="scale(0.015625)" />
    <path
       d="m 603,3500 h 575 V 0 H 603 Z m 0,1363 h 575 V 4134 H 603 Z"
       id="DejaVuSans-69-1"
       transform="scale(0.015625)" />
    <path
       d="M 191,3500 H 800 L 1894,563 2988,3500 h 609 L 2284,0 h -781 z"
       id="DejaVuSans-76"
       transform="scale(0.015625)" />
    <path
       d="M 794,531 H 1825 V 4091 L 703,3866 v 575 l 1116,225 h 631 V 531 H 3481 V 0 H 794 Z"
       id="DejaVuSans-31"
       transform="scale(0.015625)" />
    <path
       d="m 4122,4306 v -665 q -319,297 -680,443 -361,147 -767,147 -800,0 -1225,-489 -425,-489 -425,-1414 0,-922 425,-1411 425,-489 1225,-489 406,0 767,147 361,147 680,444 V 359 Q 3791,134 3420,21 3050,-91 2638,-91 1578,-91 968,557 359,1206 359,2328 q 0,1125 609,1773 610,649 1670,649 418,0 788,-111 371,-111 696,-333 z"
       id="DejaVuSans-43"
       transform="scale(0.015625)" />
    <path
       d="M 3513,3500 2247,1797 3578,0 H 2900 L 1881,1375 863,0 H 184 L 1544,1831 300,3500 h 678 l 928,-1247 928,1247 z"
       id="DejaVuSans-78"
       transform="scale(0.015625)" />
    <path
       id="DejaVuSans-20-2"
       transform="scale(0.015625)"
       d="" />
    <path
       d="M 628,4666 H 3309 V 4134 H 1259 V 2759 H 3109 V 2228 H 1259 V 0 H 628 Z"
       id="DejaVuSans-46-0"
       transform="scale(0.015625)" />
    <path
       d="M 3513,2113 V 0 h -575 v 2094 q 0,497 -194,743 -194,247 -581,247 -466,0 -735,-297 -269,-296 -269,-809 V 0 H 581 v 3500 h 578 v -544 q 207,316 486,472 280,156 646,156 603,0 912,-373 310,-373 310,-1098 z"
       id="DejaVuSans-6e-5"
       transform="scale(0.015625)" />
    <path
       d="M -19,4666 H 3928 V 4134 H 2272 V 0 H 1638 V 4134 H -19 Z"
       id="DejaVuSans-54-8"
       transform="scale(0.015625)" />
    <clipPath
       id="p02b490db7a">
      <rect
         height="266.112"
         width="357.12"
         x="57.599998"
         y="41.472"
         id="rect1115" />
    </clipPath>
  </defs>
  <g
     inkscape:label="Layer 1"
     inkscape:groupmode="layer"
     id="layer1"
     transform="translate(0.31133102,-1.4031091)">
    <g
       id="figure_1"
       transform="matrix(0.35277778,0,0,0.35277778,-0.31133102,1.4031091)">
      <g
         id="patch_1">
        <path
           d="M 0,345.6 H 460.8 V 0 H 0 Z"
           style="fill:#ffffff"
           id="path196" />
      </g>
      <g
         id="axes_1">
        <g
           id="patch_2">
          <path
             d="M 57.6,307.584 H 414.72 V 41.472 H 57.6 Z"
             style="fill:#ffffff"
             id="path199" />
        </g>
        <g
           id="LineCollection_1">
          <path
             clip-path="url(#p3958703547)"
             d="M 236.16,64.564364 88.589752,284.49164"
             style="fill:none;stroke:#000000"
             id="path202" />
          <path
             clip-path="url(#p3958703547)"
             d="M 236.16,64.564364 383.73025,284.49164"
             style="fill:none;stroke:#000000"
             id="path204" />
        </g>
        <g
           id="matplotlib.axis_1">
          <g
             id="xtick_1" />
          <g
             id="xtick_2" />
          <g
             id="xtick_3" />
          <g
             id="xtick_4" />
          <g
             id="xtick_5" />
          <g
             id="xtick_6" />
          <g
             id="xtick_7" />
          <g
             id="xtick_8" />
          <g
             id="xtick_9" />
        </g>
        <g
           id="matplotlib.axis_2">
          <g
             id="ytick_1" />
          <g
             id="ytick_2" />
          <g
             id="ytick_3" />
          <g
             id="ytick_4" />
          <g
             id="ytick_5" />
          <g
             id="ytick_6" />
          <g
             id="ytick_7" />
          <g
             id="ytick_8" />
        </g>
        <g
           id="PathCollection_1">
          <defs
             id="defs227">
            <path
               d="m 0,8.660254 c 2.296726,0 4.499694,-0.912499 6.123724,-2.53653 C 7.747755,4.499694 8.660254,2.296726 8.660254,0 c 0,-2.296726 -0.912499,-4.499694 -2.53653,-6.123724 C 4.499694,-7.747755 2.296726,-8.660254 0,-8.660254 c -2.296726,0 -4.499694,0.912499 -6.123724,2.53653 -1.624031,1.62403 -2.53653,3.826998 -2.53653,6.123724 0,2.296726 0.912499,4.499694 2.53653,6.123724 1.62403,1.624031 3.826998,2.53653 6.123724,2.53653 z"
               id="path425"
               style="stroke:#1f78b4" />
          </defs>
          <g
             clip-path="url(#p3958703547)"
             id="g235">
            <use
               style="fill:#1f78b4;stroke:#1f78b4"
               x="236.16"
               xlink:href="#m2fabc66dd4"
               y="64.564362"
               id="use229"
               width="100%"
               height="100%" />
            <use
               style="fill:#1f78b4;stroke:#1f78b4"
               x="88.589752"
               xlink:href="#m2fabc66dd4"
               y="284.49164"
               id="use231"
               width="100%"
               height="100%" />
            <use
               style="fill:#1f78b4;stroke:#1f78b4"
               x="383.73026"
               xlink:href="#m2fabc66dd4"
               y="284.49164"
               id="use233"
               width="100%"
               height="100%" />
          </g>
        </g>
        <g
           id="patch_3">
          <path
             d="M 57.6,307.584 V 41.472"
             style="fill:none;stroke:#000000;stroke-width:0.8;stroke-linecap:square;stroke-linejoin:miter"
             id="path238" />
        </g>
        <g
           id="patch_4">
          <path
             d="M 414.72,307.584 V 41.472"
             style="fill:none;stroke:#000000;stroke-width:0.8;stroke-linecap:square;stroke-linejoin:miter"
             id="path241" />
        </g>
        <g
           id="patch_5">
          <path
             d="M 57.6,307.584 H 414.72"
             style="fill:none;stroke:#000000;stroke-width:0.8;stroke-linecap:square;stroke-linejoin:miter"
             id="path244" />
        </g>
        <g
           id="patch_6">
          <path
             d="M 57.6,41.472 H 414.72"
             style="fill:none;stroke:#000000;stroke-width:0.8;stroke-linecap:square;stroke-linejoin:miter"
             id="path247" />
        </g>
        <g
           id="text_1">
          <g
             clip-path="url(#p3958703547)"
             id="g262">
            <!-- add -->
            <g
               transform="matrix(0.12,0,0,-0.12,224.865,67.875614)"
               id="g260">
              <defs
                 id="defs252">
                <path
                   d="m 2194,1759 q -697,0 -966,-159 -269,-159 -269,-544 0,-306 202,-486 202,-179 548,-179 479,0 768,339 289,339 289,901 v 128 z m 1147,238 V 0 H 2766 V 531 Q 2569,213 2275,61 1981,-91 1556,-91 q -537,0 -855,302 -317,302 -317,808 0,590 395,890 396,300 1180,300 h 807 v 57 q 0,397 -261,614 -261,217 -733,217 -300,0 -585,-72 -284,-72 -546,-216 v 532 q 315,122 612,182 297,61 578,61 760,0 1135,-394 375,-393 375,-1193 z"
                   id="path441"
                   transform="scale(0.015625)" />
                <path
                   d="m 2906,2969 v 1894 h 575 V 0 H 2906 V 525 Q 2725,213 2448,61 2172,-91 1784,-91 1150,-91 751,415 353,922 353,1747 q 0,825 398,1331 399,506 1033,506 388,0 664,-152 277,-151 458,-463 z M 947,1747 q 0,-634 261,-995 261,-361 717,-361 456,0 718,361 263,361 263,995 0,634 -263,995 -262,361 -718,361 -456,0 -717,-361 -261,-361 -261,-995 z"
                   id="path443"
                   transform="scale(0.015625)" />
              </defs>
              <use
                 xlink:href="#DejaVuSans-61"
                 id="use254"
                 x="0"
                 y="0"
                 width="100%"
                 height="100%" />
              <use
                 x="61.279297"
                 xlink:href="#DejaVuSans-64"
                 id="use256"
                 y="0"
                 width="100%"
                 height="100%" />
              <use
                 x="124.75586"
                 xlink:href="#DejaVuSans-64"
                 id="use258"
                 y="0"
                 width="100%"
                 height="100%" />
            </g>
          </g>
        </g>
        <g
           id="text_2">
          <g
             clip-path="url(#p3958703547)"
             id="g278">
            <!-- 6.9 -->
            <g
               transform="matrix(0.12,0,0,-0.12,79.047877,287.80289)"
               id="g276">
              <defs
                 id="defs268">
                <path
                   d="m 2113,2584 q -425,0 -674,-291 -248,-290 -248,-796 0,-503 248,-796 249,-292 674,-292 425,0 673,292 248,293 248,796 0,506 -248,796 -248,291 -673,291 z m 1253,1979 v -575 q -238,112 -480,171 -242,60 -480,60 -625,0 -955,-422 -329,-422 -376,-1275 184,272 462,417 279,145 613,145 703,0 1111,-427 408,-426 408,-1160 0,-719 -425,-1154 -425,-434 -1131,-434 -810,0 -1238,620 -428,621 -428,1799 0,1106 525,1764 525,658 1409,658 238,0 480,-47 242,-47 505,-140 z"
                   id="path452"
                   transform="scale(0.015625)" />
                <path
                   d="m 684,794 h 660 V 0 H 684 Z"
                   id="path454"
                   transform="scale(0.015625)" />
                <path
                   d="m 703,97 v 575 q 238,-113 481,-172 244,-59 479,-59 625,0 954,420 330,420 377,1277 -181,-269 -460,-413 -278,-144 -615,-144 -700,0 -1108,423 -408,424 -408,1159 0,718 425,1152 425,435 1131,435 810,0 1236,-621 427,-620 427,-1801 Q 3622,1225 3098,567 2575,-91 1691,-91 1453,-91 1209,-44 966,3 703,97 Z m 1256,1978 q 425,0 673,290 249,291 249,798 0,503 -249,795 -248,292 -673,292 -425,0 -673,-292 -248,-292 -248,-795 0,-507 248,-798 248,-290 673,-290 z"
                   id="path456"
                   transform="scale(0.015625)" />
              </defs>
              <use
                 xlink:href="#DejaVuSans-36"
                 id="use270"
                 x="0"
                 y="0"
                 width="100%"
                 height="100%" />
              <use
                 x="63.623047"
                 xlink:href="#DejaVuSans-2e"
                 id="use272"
                 y="0"
                 width="100%"
                 height="100%" />
              <use
                 x="95.410156"
                 xlink:href="#DejaVuSans-39"
                 id="use274"
                 y="0"
                 width="100%"
                 height="100%" />
            </g>
          </g>
        </g>
        <g
           id="text_3">
          <g
             clip-path="url(#p3958703547)"
             id="g297">
            <!-- ARG0 -->
            <g
               transform="matrix(0.12,0,0,-0.12,366.99025,287.80289)"
               id="g295">
              <defs
                 id="defs285">
                <path
                   d="M 2188,4044 1331,1722 h 1716 z m -357,622 h 716 L 4325,0 H 3669 L 3244,1197 H 1141 L 716,0 H 50 Z"
                   id="path465"
                   transform="scale(0.015625)" />
                <path
                   d="m 2841,2188 q 203,-69 395,-294 192,-225 386,-619 L 4263,0 h -679 l -596,1197 q -232,469 -449,622 -217,153 -592,153 H 1259 V 0 H 628 v 4666 h 1425 q 800,0 1194,-335 394,-334 394,-1009 0,-441 -205,-732 -205,-290 -595,-402 z M 1259,4147 V 2491 h 794 q 456,0 689,211 233,211 233,620 0,409 -233,617 -233,208 -689,208 z"
                   id="path467"
                   transform="scale(0.015625)" />
                <path
                   d="M 3809,666 V 1919 H 2778 v 519 H 4434 V 434 Q 4069,175 3628,42 3188,-91 2688,-91 1594,-91 976,548 359,1188 359,2328 q 0,1144 617,1783 618,639 1712,639 456,0 867,-113 411,-112 758,-331 v -672 q -350,297 -744,447 -394,150 -828,150 -857,0 -1287,-478 -429,-478 -429,-1425 0,-944 429,-1422 430,-478 1287,-478 334,0 596,58 263,58 472,180 z"
                   id="path469"
                   transform="scale(0.015625)" />
                <path
                   d="m 2034,4250 q -487,0 -733,-480 -245,-479 -245,-1442 0,-959 245,-1439 246,-480 733,-480 491,0 736,480 246,480 246,1439 0,963 -246,1442 -245,480 -736,480 z m 0,500 q 785,0 1199,-621 414,-620 414,-1801 0,-1178 -414,-1799 -414,-620 -1199,-620 -784,0 -1198,620 -414,621 -414,1799 0,1181 414,1801 414,621 1198,621 z"
                   id="path471"
                   transform="scale(0.015625)" />
              </defs>
              <use
                 xlink:href="#DejaVuSans-41"
                 id="use287"
                 x="0"
                 y="0"
                 width="100%"
                 height="100%" />
              <use
                 x="68.408203"
                 xlink:href="#DejaVuSans-52"
                 id="use289"
                 y="0"
                 width="100%"
                 height="100%" />
              <use
                 x="137.89062"
                 xlink:href="#DejaVuSans-47"
                 id="use291"
                 y="0"
                 width="100%"
                 height="100%" />
              <use
                 x="215.38086"
                 xlink:href="#DejaVuSans-30"
                 id="use293"
                 y="0"
                 width="100%"
                 height="100%" />
            </g>
          </g>
        </g>
        <g
           id="text_4">
          <!-- Simple Function Tree -->
          <g
             transform="matrix(0.12,0,0,-0.12,173.84531,35.472)"
             id="g357">
            <defs
               id="defs315">
              <path
                 d="m 3425,4513 v -616 q -359,172 -678,256 -319,85 -616,85 -515,0 -795,-200 -280,-200 -280,-569 0,-310 186,-468 186,-157 705,-254 l 381,-78 q 706,-135 1042,-474 336,-339 336,-907 0,-679 -455,-1029 -454,-350 -1332,-350 -331,0 -705,75 -373,75 -773,222 v 650 q 384,-215 753,-325 369,-109 725,-109 540,0 834,212 294,213 294,607 0,343 -211,537 -211,194 -692,291 l -385,75 q -706,140 -1022,440 -315,300 -315,835 0,619 436,975 436,356 1201,356 329,0 669,-60 341,-59 697,-177 z"
                 id="path481"
                 transform="scale(0.015625)" />
              <path
                 d="m 603,3500 h 575 V 0 H 603 Z m 0,1363 h 575 V 4134 H 603 Z"
                 id="path483"
                 transform="scale(0.015625)" />
              <path
                 d="m 3328,2828 q 216,388 516,572 300,184 706,184 547,0 844,-383 297,-382 297,-1088 V 0 h -578 v 2094 q 0,503 -179,746 -178,244 -543,244 -447,0 -707,-297 -259,-296 -259,-809 V 0 h -578 v 2094 q 0,506 -178,748 -178,242 -550,242 -441,0 -701,-298 -259,-298 -259,-808 V 0 H 581 v 3500 h 578 v -544 q 197,322 472,475 275,153 653,153 382,0 649,-194 267,-193 395,-562 z"
                 id="path485"
                 transform="scale(0.015625)" />
              <path
                 d="M 1159,525 V -1331 H 581 v 4831 h 578 v -531 q 182,312 458,463 277,152 661,152 638,0 1036,-506 399,-506 399,-1331 0,-825 -399,-1332 -398,-506 -1036,-506 -384,0 -661,152 -276,152 -458,464 z m 1957,1222 q 0,634 -261,995 -261,361 -717,361 -457,0 -718,-361 -261,-361 -261,-995 0,-634 261,-995 261,-361 718,-361 456,0 717,361 261,361 261,995 z"
                 id="path487"
                 transform="scale(0.015625)" />
              <path
                 d="m 603,4863 h 575 V 0 H 603 Z"
                 id="path489"
                 transform="scale(0.015625)" />
              <path
                 d="M 3597,1894 V 1613 H 953 q 38,-594 358,-905 320,-311 892,-311 331,0 642,81 311,81 618,244 V 178 Q 3153,47 2828,-22 2503,-91 2169,-91 1331,-91 842,396 353,884 353,1716 q 0,859 464,1363 464,505 1252,505 706,0 1117,-455 411,-454 411,-1235 z m -575,169 q -6,471 -264,752 -258,282 -683,282 -481,0 -770,-272 -289,-272 -333,-766 z"
                 id="path491"
                 transform="scale(0.015625)" />
              <path
                 id="path493"
                 transform="scale(0.015625)"
                 d="" />
              <path
                 d="M 628,4666 H 3309 V 4134 H 1259 V 2759 H 3109 V 2228 H 1259 V 0 H 628 Z"
                 id="path495"
                 transform="scale(0.015625)" />
              <path
                 d="m 544,1381 v 2119 h 575 V 1403 q 0,-497 193,-746 194,-248 582,-248 465,0 735,297 271,297 271,810 v 1984 h 575 V 0 H 2900 V 538 Q 2691,219 2414,64 2138,-91 1772,-91 1169,-91 856,284 544,659 544,1381 Z m 1447,2203 z"
                 id="path497"
                 transform="scale(0.015625)" />
              <path
                 d="M 3513,2113 V 0 h -575 v 2094 q 0,497 -194,743 -194,247 -581,247 -466,0 -735,-297 -269,-296 -269,-809 V 0 H 581 v 3500 h 578 v -544 q 207,316 486,472 280,156 646,156 603,0 912,-373 310,-373 310,-1098 z"
                 id="path499"
                 transform="scale(0.015625)" />
              <path
                 d="m 3122,3366 v -538 q -244,135 -489,202 -245,67 -495,67 -560,0 -870,-355 -309,-354 -309,-995 0,-641 309,-996 310,-354 870,-354 250,0 495,67 245,67 489,202 V 134 Q 2881,22 2623,-34 2366,-91 2075,-91 1284,-91 818,406 353,903 353,1747 q 0,856 470,1346 471,491 1290,491 265,0 518,-55 253,-54 491,-163 z"
                 id="path501"
                 transform="scale(0.015625)" />
              <path
                 d="M 1172,4494 V 3500 H 2356 V 3053 H 1172 V 1153 q 0,-428 117,-550 117,-122 477,-122 h 590 V 0 H 1766 Q 1100,0 847,248 594,497 594,1153 V 3053 H 172 v 447 h 422 v 994 z"
                 id="path503"
                 transform="scale(0.015625)" />
              <path
                 d="m 1959,3097 q -462,0 -731,-361 -269,-361 -269,-989 0,-628 267,-989 268,-361 733,-361 460,0 728,362 269,363 269,988 0,622 -269,986 -268,364 -728,364 z m 0,487 q 750,0 1178,-488 429,-487 429,-1349 Q 3566,888 3137,398 2709,-91 1959,-91 1206,-91 779,398 353,888 353,1747 q 0,862 426,1349 427,488 1180,488 z"
                 id="path505"
                 transform="scale(0.015625)" />
              <path
                 d="M -19,4666 H 3928 V 4134 H 2272 V 0 H 1638 V 4134 H -19 Z"
                 id="path507"
                 transform="scale(0.015625)" />
              <path
                 d="m 2631,2963 q -97,56 -211,82 -114,27 -251,27 -488,0 -749,-317 -261,-317 -261,-911 V 0 H 581 v 3500 h 578 v -544 q 182,319 472,473 291,155 707,155 59,0 131,-8 72,-7 159,-23 z"
                 id="path509"
                 transform="scale(0.015625)" />
            </defs>
            <use
               xlink:href="#DejaVuSans-53"
               id="use317"
               x="0"
               y="0"
               width="100%"
               height="100%" />
            <use
               x="63.476562"
               xlink:href="#DejaVuSans-69"
               id="use319"
               y="0"
               width="100%"
               height="100%" />
            <use
               x="91.259766"
               xlink:href="#DejaVuSans-6d"
               id="use321"
               y="0"
               width="100%"
               height="100%" />
            <use
               x="188.67188"
               xlink:href="#DejaVuSans-70"
               id="use323"
               y="0"
               width="100%"
               height="100%" />
            <use
               x="252.14844"
               xlink:href="#DejaVuSans-6c"
               id="use325"
               y="0"
               width="100%"
               height="100%" />
            <use
               x="279.93164"
               xlink:href="#DejaVuSans-65"
               id="use327"
               y="0"
               width="100%"
               height="100%" />
            <use
               x="341.45508"
               xlink:href="#DejaVuSans-20"
               id="use329"
               y="0"
               width="100%"
               height="100%" />
            <use
               x="373.24219"
               xlink:href="#DejaVuSans-46"
               id="use331"
               y="0"
               width="100%"
               height="100%" />
            <use
               x="425.26172"
               xlink:href="#DejaVuSans-75"
               id="use333"
               y="0"
               width="100%"
               height="100%" />
            <use
               x="488.64062"
               xlink:href="#DejaVuSans-6e"
               id="use335"
               y="0"
               width="100%"
               height="100%" />
            <use
               x="552.01953"
               xlink:href="#DejaVuSans-63"
               id="use337"
               y="0"
               width="100%"
               height="100%" />
            <use
               x="607"
               xlink:href="#DejaVuSans-74"
               id="use339"
               y="0"
               width="100%"
               height="100%" />
            <use
               x="646.20898"
               xlink:href="#DejaVuSans-69"
               id="use341"
               y="0"
               width="100%"
               height="100%" />
            <use
               x="673.99219"
               xlink:href="#DejaVuSans-6f"
               id="use343"
               y="0"
               width="100%"
               height="100%" />
            <use
               x="735.17383"
               xlink:href="#DejaVuSans-6e"
               id="use345"
               y="0"
               width="100%"
               height="100%" />
            <use
               x="798.55273"
               xlink:href="#DejaVuSans-20"
               id="use347"
               y="0"
               width="100%"
               height="100%" />
            <use
               x="830.33984"
               xlink:href="#DejaVuSans-54"
               id="use349"
               y="0"
               width="100%"
               height="100%" />
            <use
               x="876.67383"
               xlink:href="#DejaVuSans-72"
               id="use351"
               y="0"
               width="100%"
               height="100%" />
            <use
               x="915.53711"
               xlink:href="#DejaVuSans-65"
               id="use353"
               y="0"
               width="100%"
               height="100%" />
            <use
               x="977.06055"
               xlink:href="#DejaVuSans-65"
               id="use355"
               y="0"
               width="100%"
               height="100%" />
          </g>
        </g>
      </g>
    </g>
    <g
       id="figure_1-2"
       transform="matrix(0.35277778,0,0,0.35277778,162.24867,1.4031091)">
      <g
         id="patch_1-1">
        <path
           d="M 0,345.6 H 460.8 V 0 H 0 Z"
           style="fill:#ffffff"
           id="path836" />
      </g>
      <g
         id="axes_1-8">
        <g
           id="patch_2-6">
          <path
             d="M 57.6,307.584 H 414.72 V 41.472 H 57.6 Z"
             style="fill:#ffffff"
             id="path839" />
        </g>
        <g
           id="LineCollection_1-7">
          <path
             clip-path="url(#p02b490db7a)"
             d="M 236.16,64.564364 186.96992,137.87345"
             style="fill:none;stroke:#000000"
             id="path842" />
          <path
             clip-path="url(#p02b490db7a)"
             d="m 236.16,64.564364 49.19008,73.309086"
             style="fill:none;stroke:#000000"
             id="path844" />
          <path
             clip-path="url(#p02b490db7a)"
             d="M 186.96992,137.87345 88.589752,211.18254"
             style="fill:none;stroke:#000000"
             id="path846" />
          <path
             clip-path="url(#p02b490db7a)"
             d="m 186.96992,137.87345 v 73.30909"
             style="fill:none;stroke:#000000"
             id="path848" />
          <path
             clip-path="url(#p02b490db7a)"
             d="m 285.35008,137.87345 v 73.30909"
             style="fill:none;stroke:#000000"
             id="path850" />
          <path
             clip-path="url(#p02b490db7a)"
             d="m 285.35008,137.87345 98.38017,73.30909"
             style="fill:none;stroke:#000000"
             id="path852" />
          <path
             clip-path="url(#p02b490db7a)"
             d="M 285.35008,211.18254 236.16,284.49164"
             style="fill:none;stroke:#000000"
             id="path854" />
          <path
             clip-path="url(#p02b490db7a)"
             d="m 285.35008,211.18254 49.19008,73.3091"
             style="fill:none;stroke:#000000"
             id="path856" />
        </g>
        <g
           id="matplotlib.axis_1-4">
          <g
             id="xtick_1-9" />
          <g
             id="xtick_2-0" />
          <g
             id="xtick_3-8" />
          <g
             id="xtick_4-9" />
          <g
             id="xtick_5-0" />
        </g>
        <g
           id="matplotlib.axis_2-2">
          <g
             id="ytick_1-1" />
          <g
             id="ytick_2-1" />
          <g
             id="ytick_3-7" />
          <g
             id="ytick_4-8" />
          <g
             id="ytick_5-7" />
          <g
             id="ytick_6-5" />
        </g>
        <g
           id="PathCollection_1-5">
          <defs
             id="defs873">
            <path
               d="m 0,8.660254 c 2.296726,0 4.499694,-0.912499 6.123724,-2.53653 C 7.747755,4.499694 8.660254,2.296726 8.660254,0 c 0,-2.296726 -0.912499,-4.499694 -2.53653,-6.123724 C 4.499694,-7.747755 2.296726,-8.660254 0,-8.660254 c -2.296726,0 -4.499694,0.912499 -6.123724,2.53653 -1.624031,1.62403 -2.53653,3.826998 -2.53653,6.123724 0,2.296726 0.912499,4.499694 2.53653,6.123724 1.62403,1.624031 3.826998,2.53653 6.123724,2.53653 z"
               id="path1179"
               style="stroke:#1f78b4" />
          </defs>
          <g
             clip-path="url(#p02b490db7a)"
             id="g893">
            <use
               style="fill:#1f78b4;stroke:#1f78b4"
               x="236.16"
               xlink:href="#m0aa57874cb"
               y="64.564362"
               id="use875"
               width="100%"
               height="100%" />
            <use
               style="fill:#1f78b4;stroke:#1f78b4"
               x="186.96991"
               xlink:href="#m0aa57874cb"
               y="137.87346"
               id="use877"
               width="100%"
               height="100%" />
            <use
               style="fill:#1f78b4;stroke:#1f78b4"
               x="88.589752"
               xlink:href="#m0aa57874cb"
               y="211.18254"
               id="use879"
               width="100%"
               height="100%" />
            <use
               style="fill:#1f78b4;stroke:#1f78b4"
               x="186.96991"
               xlink:href="#m0aa57874cb"
               y="211.18254"
               id="use881"
               width="100%"
               height="100%" />
            <use
               style="fill:#1f78b4;stroke:#1f78b4"
               x="285.3501"
               xlink:href="#m0aa57874cb"
               y="137.87346"
               id="use883"
               width="100%"
               height="100%" />
            <use
               style="fill:#1f78b4;stroke:#1f78b4"
               x="285.3501"
               xlink:href="#m0aa57874cb"
               y="211.18254"
               id="use885"
               width="100%"
               height="100%" />
            <use
               style="fill:#1f78b4;stroke:#1f78b4"
               x="236.16"
               xlink:href="#m0aa57874cb"
               y="284.49164"
               id="use887"
               width="100%"
               height="100%" />
            <use
               style="fill:#1f78b4;stroke:#1f78b4"
               x="334.54016"
               xlink:href="#m0aa57874cb"
               y="284.49164"
               id="use889"
               width="100%"
               height="100%" />
            <use
               style="fill:#1f78b4;stroke:#1f78b4"
               x="383.73026"
               xlink:href="#m0aa57874cb"
               y="211.18254"
               id="use891"
               width="100%"
               height="100%" />
          </g>
        </g>
        <g
           id="patch_3-2">
          <path
             d="M 57.6,307.584 V 41.472"
             style="fill:none;stroke:#000000;stroke-width:0.8;stroke-linecap:square;stroke-linejoin:miter"
             id="path896" />
        </g>
        <g
           id="patch_4-7">
          <path
             d="M 414.72,307.584 V 41.472"
             style="fill:none;stroke:#000000;stroke-width:0.8;stroke-linecap:square;stroke-linejoin:miter"
             id="path899" />
        </g>
        <g
           id="patch_5-6">
          <path
             d="M 57.6,307.584 H 414.72"
             style="fill:none;stroke:#000000;stroke-width:0.8;stroke-linecap:square;stroke-linejoin:miter"
             id="path902" />
        </g>
        <g
           id="patch_6-7">
          <path
             d="M 57.6,41.472 H 414.72"
             style="fill:none;stroke:#000000;stroke-width:0.8;stroke-linecap:square;stroke-linejoin:miter"
             id="path905" />
        </g>
        <g
           id="text_1-7">
          <g
             clip-path="url(#p02b490db7a)"
             id="g920">
            <!-- add -->
            <g
               transform="matrix(0.12,0,0,-0.12,224.865,67.875614)"
               id="g918">
              <defs
                 id="defs910">
                <path
                   d="m 2194,1759 q -697,0 -966,-159 -269,-159 -269,-544 0,-306 202,-486 202,-179 548,-179 479,0 768,339 289,339 289,901 v 128 z m 1147,238 V 0 H 2766 V 531 Q 2569,213 2275,61 1981,-91 1556,-91 q -537,0 -855,302 -317,302 -317,808 0,590 395,890 396,300 1180,300 h 807 v 57 q 0,397 -261,614 -261,217 -733,217 -300,0 -585,-72 -284,-72 -546,-216 v 532 q 315,122 612,182 297,61 578,61 760,0 1135,-394 375,-393 375,-1193 z"
                   id="path1201"
                   transform="scale(0.015625)" />
                <path
                   d="m 2906,2969 v 1894 h 575 V 0 H 2906 V 525 Q 2725,213 2448,61 2172,-91 1784,-91 1150,-91 751,415 353,922 353,1747 q 0,825 398,1331 399,506 1033,506 388,0 664,-152 277,-151 458,-463 z M 947,1747 q 0,-634 261,-995 261,-361 717,-361 456,0 718,361 263,361 263,995 0,634 -263,995 -262,361 -718,361 -456,0 -717,-361 -261,-361 -261,-995 z"
                   id="path1203"
                   transform="scale(0.015625)" />
              </defs>
              <use
                 xlink:href="#DejaVuSans-61-4"
                 id="use912"
                 x="0"
                 y="0"
                 width="100%"
                 height="100%" />
              <use
                 x="61.279297"
                 xlink:href="#DejaVuSans-64-8"
                 id="use914"
                 y="0"
                 width="100%"
                 height="100%" />
              <use
                 x="124.75586"
                 xlink:href="#DejaVuSans-64-8"
                 id="use916"
                 y="0"
                 width="100%"
                 height="100%" />
            </g>
          </g>
        </g>
        <g
           id="text_2-2">
          <g
             clip-path="url(#p02b490db7a)"
             id="g936">
            <!-- mul -->
            <g
               transform="matrix(0.12,0,0,-0.12,175.65617,141.1847)"
               id="g934">
              <defs
                 id="defs926">
                <path
                   d="m 3328,2828 q 216,388 516,572 300,184 706,184 547,0 844,-383 297,-382 297,-1088 V 0 h -578 v 2094 q 0,503 -179,746 -178,244 -543,244 -447,0 -707,-297 -259,-296 -259,-809 V 0 h -578 v 2094 q 0,506 -178,748 -178,242 -550,242 -441,0 -701,-298 -259,-298 -259,-808 V 0 H 581 v 3500 h 578 v -544 q 197,322 472,475 275,153 653,153 382,0 649,-194 267,-193 395,-562 z"
                   id="path1212"
                   transform="scale(0.015625)" />
                <path
                   d="m 544,1381 v 2119 h 575 V 1403 q 0,-497 193,-746 194,-248 582,-248 465,0 735,297 271,297 271,810 v 1984 h 575 V 0 H 2900 V 538 Q 2691,219 2414,64 2138,-91 1772,-91 1169,-91 856,284 544,659 544,1381 Z m 1447,2203 z"
                   id="path1214"
                   transform="scale(0.015625)" />
                <path
                   d="m 603,4863 h 575 V 0 H 603 Z"
                   id="path1216"
                   transform="scale(0.015625)" />
              </defs>
              <use
                 xlink:href="#DejaVuSans-6d-2"
                 id="use928"
                 x="0"
                 y="0"
                 width="100%"
                 height="100%" />
              <use
                 x="97.412109"
                 xlink:href="#DejaVuSans-75-0"
                 id="use930"
                 y="0"
                 width="100%"
                 height="100%" />
              <use
                 x="160.79102"
                 xlink:href="#DejaVuSans-6c-0"
                 id="use932"
                 y="0"
                 width="100%"
                 height="100%" />
            </g>
          </g>
        </g>
        <g
           id="text_3-4">
          <g
             clip-path="url(#p02b490db7a)"
             id="g955">
            <!-- ARG0 -->
            <g
               transform="matrix(0.12,0,0,-0.12,71.849752,214.49379)"
               id="g953">
              <defs
                 id="defs943">
                <path
                   d="M 2188,4044 1331,1722 h 1716 z m -357,622 h 716 L 4325,0 H 3669 L 3244,1197 H 1141 L 716,0 H 50 Z"
                   id="path1225"
                   transform="scale(0.015625)" />
                <path
                   d="m 2841,2188 q 203,-69 395,-294 192,-225 386,-619 L 4263,0 h -679 l -596,1197 q -232,469 -449,622 -217,153 -592,153 H 1259 V 0 H 628 v 4666 h 1425 q 800,0 1194,-335 394,-334 394,-1009 0,-441 -205,-732 -205,-290 -595,-402 z M 1259,4147 V 2491 h 794 q 456,0 689,211 233,211 233,620 0,409 -233,617 -233,208 -689,208 z"
                   id="path1227"
                   transform="scale(0.015625)" />
                <path
                   d="M 3809,666 V 1919 H 2778 v 519 H 4434 V 434 Q 4069,175 3628,42 3188,-91 2688,-91 1594,-91 976,548 359,1188 359,2328 q 0,1144 617,1783 618,639 1712,639 456,0 867,-113 411,-112 758,-331 v -672 q -350,297 -744,447 -394,150 -828,150 -857,0 -1287,-478 -429,-478 -429,-1425 0,-944 429,-1422 430,-478 1287,-478 334,0 596,58 263,58 472,180 z"
                   id="path1229"
                   transform="scale(0.015625)" />
                <path
                   d="m 2034,4250 q -487,0 -733,-480 -245,-479 -245,-1442 0,-959 245,-1439 246,-480 733,-480 491,0 736,480 246,480 246,1439 0,963 -246,1442 -245,480 -736,480 z m 0,500 q 785,0 1199,-621 414,-620 414,-1801 0,-1178 -414,-1799 -414,-620 -1199,-620 -784,0 -1198,620 -414,621 -414,1799 0,1181 414,1801 414,621 1198,621 z"
                   id="path1231"
                   transform="scale(0.015625)" />
              </defs>
              <use
                 xlink:href="#DejaVuSans-41-3"
                 id="use945"
                 x="0"
                 y="0"
                 width="100%"
                 height="100%" />
              <use
                 x="68.408203"
                 xlink:href="#DejaVuSans-52-3"
                 id="use947"
                 y="0"
                 width="100%"
                 height="100%" />
              <use
                 x="137.89062"
                 xlink:href="#DejaVuSans-47-4"
                 id="use949"
                 y="0"
                 width="100%"
                 height="100%" />
              <use
                 x="215.38086"
                 xlink:href="#DejaVuSans-30-7"
                 id="use951"
                 y="0"
                 width="100%"
                 height="100%" />
            </g>
          </g>
        </g>
        <g
           id="text_4-4">
          <g
             clip-path="url(#p02b490db7a)"
             id="g968">
            <!-- ARG0 -->
            <g
               transform="matrix(0.12,0,0,-0.12,170.22992,214.49379)"
               id="g966">
              <use
                 xlink:href="#DejaVuSans-41-3"
                 id="use958"
                 x="0"
                 y="0"
                 width="100%"
                 height="100%" />
              <use
                 x="68.408203"
                 xlink:href="#DejaVuSans-52-3"
                 id="use960"
                 y="0"
                 width="100%"
                 height="100%" />
              <use
                 x="137.89062"
                 xlink:href="#DejaVuSans-47-4"
                 id="use962"
                 y="0"
                 width="100%"
                 height="100%" />
              <use
                 x="215.38086"
                 xlink:href="#DejaVuSans-30-7"
                 id="use964"
                 y="0"
                 width="100%"
                 height="100%" />
            </g>
          </g>
        </g>
        <g
           id="text_5">
          <g
             clip-path="url(#p02b490db7a)"
             id="g1008">
            <!-- protectedDiv -->
            <g
               transform="matrix(0.12,0,0,-0.12,246.50383,141.1847)"
               id="g1006">
              <defs
                 id="defs980">
                <path
                   d="M 1159,525 V -1331 H 581 v 4831 h 578 v -531 q 182,312 458,463 277,152 661,152 638,0 1036,-506 399,-506 399,-1331 0,-825 -399,-1332 -398,-506 -1036,-506 -384,0 -661,152 -276,152 -458,464 z m 1957,1222 q 0,634 -261,995 -261,361 -717,361 -457,0 -718,-361 -261,-361 -261,-995 0,-634 261,-995 261,-361 718,-361 456,0 717,361 261,361 261,995 z"
                   id="path1248"
                   transform="scale(0.015625)" />
                <path
                   d="m 2631,2963 q -97,56 -211,82 -114,27 -251,27 -488,0 -749,-317 -261,-317 -261,-911 V 0 H 581 v 3500 h 578 v -544 q 182,319 472,473 291,155 707,155 59,0 131,-8 72,-7 159,-23 z"
                   id="path1250"
                   transform="scale(0.015625)" />
                <path
                   d="m 1959,3097 q -462,0 -731,-361 -269,-361 -269,-989 0,-628 267,-989 268,-361 733,-361 460,0 728,362 269,363 269,988 0,622 -269,986 -268,364 -728,364 z m 0,487 q 750,0 1178,-488 429,-487 429,-1349 Q 3566,888 3137,398 2709,-91 1959,-91 1206,-91 779,398 353,888 353,1747 q 0,862 426,1349 427,488 1180,488 z"
                   id="path1252"
                   transform="scale(0.015625)" />
                <path
                   d="M 1172,4494 V 3500 H 2356 V 3053 H 1172 V 1153 q 0,-428 117,-550 117,-122 477,-122 h 590 V 0 H 1766 Q 1100,0 847,248 594,497 594,1153 V 3053 H 172 v 447 h 422 v 994 z"
                   id="path1254"
                   transform="scale(0.015625)" />
                <path
                   d="M 3597,1894 V 1613 H 953 q 38,-594 358,-905 320,-311 892,-311 331,0 642,81 311,81 618,244 V 178 Q 3153,47 2828,-22 2503,-91 2169,-91 1331,-91 842,396 353,884 353,1716 q 0,859 464,1363 464,505 1252,505 706,0 1117,-455 411,-454 411,-1235 z m -575,169 q -6,471 -264,752 -258,282 -683,282 -481,0 -770,-272 -289,-272 -333,-766 z"
                   id="path1256"
                   transform="scale(0.015625)" />
                <path
                   d="m 3122,3366 v -538 q -244,135 -489,202 -245,67 -495,67 -560,0 -870,-355 -309,-354 -309,-995 0,-641 309,-996 310,-354 870,-354 250,0 495,67 245,67 489,202 V 134 Q 2881,22 2623,-34 2366,-91 2075,-91 1284,-91 818,406 353,903 353,1747 q 0,856 470,1346 471,491 1290,491 265,0 518,-55 253,-54 491,-163 z"
                   id="path1258"
                   transform="scale(0.015625)" />
                <path
                   d="M 1259,4147 V 519 h 763 q 966,0 1414,437 448,438 448,1382 0,937 -448,1373 -448,436 -1414,436 z m -631,519 h 1297 q 1356,0 1990,-564 635,-564 635,-1764 Q 4550,1131 3912,565 3275,0 1925,0 H 628 Z"
                   id="path1260"
                   transform="scale(0.015625)" />
                <path
                   d="m 603,3500 h 575 V 0 H 603 Z m 0,1363 h 575 V 4134 H 603 Z"
                   id="path1262"
                   transform="scale(0.015625)" />
                <path
                   d="M 191,3500 H 800 L 1894,563 2988,3500 h 609 L 2284,0 h -781 z"
                   id="path1264"
                   transform="scale(0.015625)" />
              </defs>
              <use
                 xlink:href="#DejaVuSans-70-9"
                 id="use982"
                 x="0"
                 y="0"
                 width="100%"
                 height="100%" />
              <use
                 x="63.476562"
                 xlink:href="#DejaVuSans-72-3"
                 id="use984"
                 y="0"
                 width="100%"
                 height="100%" />
              <use
                 x="102.33984"
                 xlink:href="#DejaVuSans-6f-7"
                 id="use986"
                 y="0"
                 width="100%"
                 height="100%" />
              <use
                 x="163.52148"
                 xlink:href="#DejaVuSans-74-9"
                 id="use988"
                 y="0"
                 width="100%"
                 height="100%" />
              <use
                 x="202.73047"
                 xlink:href="#DejaVuSans-65-2"
                 id="use990"
                 y="0"
                 width="100%"
                 height="100%" />
              <use
                 x="264.25391"
                 xlink:href="#DejaVuSans-63-4"
                 id="use992"
                 y="0"
                 width="100%"
                 height="100%" />
              <use
                 x="319.23438"
                 xlink:href="#DejaVuSans-74-9"
                 id="use994"
                 y="0"
                 width="100%"
                 height="100%" />
              <use
                 x="358.44336"
                 xlink:href="#DejaVuSans-65-2"
                 id="use996"
                 y="0"
                 width="100%"
                 height="100%" />
              <use
                 x="419.9668"
                 xlink:href="#DejaVuSans-64-8"
                 id="use998"
                 y="0"
                 width="100%"
                 height="100%" />
              <use
                 x="483.44336"
                 xlink:href="#DejaVuSans-44"
                 id="use1000"
                 y="0"
                 width="100%"
                 height="100%" />
              <use
                 x="560.44531"
                 xlink:href="#DejaVuSans-69-1"
                 id="use1002"
                 y="0"
                 width="100%"
                 height="100%" />
              <use
                 x="588.22852"
                 xlink:href="#DejaVuSans-76"
                 id="use1004"
                 y="0"
                 width="100%"
                 height="100%" />
            </g>
          </g>
        </g>
        <g
           id="text_6">
          <g
             clip-path="url(#p02b490db7a)"
             id="g1019">
            <!-- mul -->
            <g
               transform="matrix(0.12,0,0,-0.12,274.03633,214.49379)"
               id="g1017">
              <use
                 xlink:href="#DejaVuSans-6d-2"
                 id="use1011"
                 x="0"
                 y="0"
                 width="100%"
                 height="100%" />
              <use
                 x="97.412109"
                 xlink:href="#DejaVuSans-75-0"
                 id="use1013"
                 y="0"
                 width="100%"
                 height="100%" />
              <use
                 x="160.79102"
                 xlink:href="#DejaVuSans-6c-0"
                 id="use1015"
                 y="0"
                 width="100%"
                 height="100%" />
            </g>
          </g>
        </g>
        <g
           id="text_7">
          <g
             clip-path="url(#p02b490db7a)"
             id="g1032">
            <!-- ARG0 -->
            <g
               transform="matrix(0.12,0,0,-0.12,219.42,287.80289)"
               id="g1030">
              <use
                 xlink:href="#DejaVuSans-41-3"
                 id="use1022"
                 x="0"
                 y="0"
                 width="100%"
                 height="100%" />
              <use
                 x="68.408203"
                 xlink:href="#DejaVuSans-52-3"
                 id="use1024"
                 y="0"
                 width="100%"
                 height="100%" />
              <use
                 x="137.89062"
                 xlink:href="#DejaVuSans-47-4"
                 id="use1026"
                 y="0"
                 width="100%"
                 height="100%" />
              <use
                 x="215.38086"
                 xlink:href="#DejaVuSans-30-7"
                 id="use1028"
                 y="0"
                 width="100%"
                 height="100%" />
            </g>
          </g>
        </g>
        <g
           id="text_8">
          <g
             clip-path="url(#p02b490db7a)"
             id="g1045">
            <!-- ARG0 -->
            <g
               transform="matrix(0.12,0,0,-0.12,317.80016,287.80289)"
               id="g1043">
              <use
                 xlink:href="#DejaVuSans-41-3"
                 id="use1035"
                 x="0"
                 y="0"
                 width="100%"
                 height="100%" />
              <use
                 x="68.408203"
                 xlink:href="#DejaVuSans-52-3"
                 id="use1037"
                 y="0"
                 width="100%"
                 height="100%" />
              <use
                 x="137.89062"
                 xlink:href="#DejaVuSans-47-4"
                 id="use1039"
                 y="0"
                 width="100%"
                 height="100%" />
              <use
                 x="215.38086"
                 xlink:href="#DejaVuSans-30-7"
                 id="use1041"
                 y="0"
                 width="100%"
                 height="100%" />
            </g>
          </g>
        </g>
        <g
           id="text_9">
          <g
             clip-path="url(#p02b490db7a)"
             id="g1057">
            <!-- 10 -->
            <g
               transform="matrix(0.12,0,0,-0.12,376.09525,214.49379)"
               id="g1055">
              <defs
                 id="defs1049">
                <path
                   d="M 794,531 H 1825 V 4091 L 703,3866 v 575 l 1116,225 h 631 V 531 H 3481 V 0 H 794 Z"
                   id="path1302"
                   transform="scale(0.015625)" />
              </defs>
              <use
                 xlink:href="#DejaVuSans-31"
                 id="use1051"
                 x="0"
                 y="0"
                 width="100%"
                 height="100%" />
              <use
                 x="63.623047"
                 xlink:href="#DejaVuSans-30-7"
                 id="use1053"
                 y="0"
                 width="100%"
                 height="100%" />
            </g>
          </g>
        </g>
        <g
           id="text_10">
          <!-- Complex Function Tree -->
          <g
             transform="matrix(0.12,0,0,-0.12,168.01406,35.472)"
             id="g1110">
            <defs
               id="defs1066">
              <path
                 d="m 4122,4306 v -665 q -319,297 -680,443 -361,147 -767,147 -800,0 -1225,-489 -425,-489 -425,-1414 0,-922 425,-1411 425,-489 1225,-489 406,0 767,147 361,147 680,444 V 359 Q 3791,134 3420,21 3050,-91 2638,-91 1578,-91 968,557 359,1206 359,2328 q 0,1125 609,1773 610,649 1670,649 418,0 788,-111 371,-111 696,-333 z"
                 id="path1310"
                 transform="scale(0.015625)" />
              <path
                 d="M 3513,3500 2247,1797 3578,0 H 2900 L 1881,1375 863,0 H 184 L 1544,1831 300,3500 h 678 l 928,-1247 928,1247 z"
                 id="path1312"
                 transform="scale(0.015625)" />
              <path
                 id="path1314"
                 transform="scale(0.015625)"
                 d="" />
              <path
                 d="M 628,4666 H 3309 V 4134 H 1259 V 2759 H 3109 V 2228 H 1259 V 0 H 628 Z"
                 id="path1316"
                 transform="scale(0.015625)" />
              <path
                 d="M 3513,2113 V 0 h -575 v 2094 q 0,497 -194,743 -194,247 -581,247 -466,0 -735,-297 -269,-296 -269,-809 V 0 H 581 v 3500 h 578 v -544 q 207,316 486,472 280,156 646,156 603,0 912,-373 310,-373 310,-1098 z"
                 id="path1318"
                 transform="scale(0.015625)" />
              <path
                 d="M -19,4666 H 3928 V 4134 H 2272 V 0 H 1638 V 4134 H -19 Z"
                 id="path1320"
                 transform="scale(0.015625)" />
            </defs>
            <use
               xlink:href="#DejaVuSans-43"
               id="use1068"
               x="0"
               y="0"
               width="100%"
               height="100%" />
            <use
               x="69.824219"
               xlink:href="#DejaVuSans-6f-7"
               id="use1070"
               y="0"
               width="100%"
               height="100%" />
            <use
               x="131.00586"
               xlink:href="#DejaVuSans-6d-2"
               id="use1072"
               y="0"
               width="100%"
               height="100%" />
            <use
               x="228.41797"
               xlink:href="#DejaVuSans-70-9"
               id="use1074"
               y="0"
               width="100%"
               height="100%" />
            <use
               x="291.89453"
               xlink:href="#DejaVuSans-6c-0"
               id="use1076"
               y="0"
               width="100%"
               height="100%" />
            <use
               x="319.67773"
               xlink:href="#DejaVuSans-65-2"
               id="use1078"
               y="0"
               width="100%"
               height="100%" />
            <use
               x="379.45117"
               xlink:href="#DejaVuSans-78"
               id="use1080"
               y="0"
               width="100%"
               height="100%" />
            <use
               x="438.63086"
               xlink:href="#DejaVuSans-20-2"
               id="use1082"
               y="0"
               width="100%"
               height="100%" />
            <use
               x="470.41797"
               xlink:href="#DejaVuSans-46-0"
               id="use1084"
               y="0"
               width="100%"
               height="100%" />
            <use
               x="522.4375"
               xlink:href="#DejaVuSans-75-0"
               id="use1086"
               y="0"
               width="100%"
               height="100%" />
            <use
               x="585.81641"
               xlink:href="#DejaVuSans-6e-5"
               id="use1088"
               y="0"
               width="100%"
               height="100%" />
            <use
               x="649.19531"
               xlink:href="#DejaVuSans-63-4"
               id="use1090"
               y="0"
               width="100%"
               height="100%" />
            <use
               x="704.17578"
               xlink:href="#DejaVuSans-74-9"
               id="use1092"
               y="0"
               width="100%"
               height="100%" />
            <use
               x="743.38477"
               xlink:href="#DejaVuSans-69-1"
               id="use1094"
               y="0"
               width="100%"
               height="100%" />
            <use
               x="771.16797"
               xlink:href="#DejaVuSans-6f-7"
               id="use1096"
               y="0"
               width="100%"
               height="100%" />
            <use
               x="832.34961"
               xlink:href="#DejaVuSans-6e-5"
               id="use1098"
               y="0"
               width="100%"
               height="100%" />
            <use
               x="895.72852"
               xlink:href="#DejaVuSans-20-2"
               id="use1100"
               y="0"
               width="100%"
               height="100%" />
            <use
               x="927.51562"
               xlink:href="#DejaVuSans-54-8"
               id="use1102"
               y="0"
               width="100%"
               height="100%" />
            <use
               x="973.84961"
               xlink:href="#DejaVuSans-72-3"
               id="use1104"
               y="0"
               width="100%"
               height="100%" />
            <use
               x="1012.7129"
               xlink:href="#DejaVuSans-65-2"
               id="use1106"
               y="0"
               width="100%"
               height="100%" />
            <use
               x="1074.2363"
               xlink:href="#DejaVuSans-65-2"
               id="use1108"
               y="0"
               width="100%"
               height="100%" />
          </g>
        </g>
      </g>
    </g>
  </g>
</svg>
